<?xml version="1.0" encoding="UTF-8"?>
<svg id="Layer_1" xmlns="http://www.w3.org/2000/svg" version="1.1" viewBox="0 0 510.53 253.88">
  <!-- Generator: Adobe Illustrator 29.7.1, SVG Export Plug-In . SVG Version: 2.1.1 Build 8)  -->
  <defs>
    <style>
      .st0 {
        fill: #ff0606;
      }
    </style>
  </defs>
  <path class="st0" d="M128.02,65.3c0-8.3,1.56-16.14,4.67-23.53,3.11-7.38,7.44-13.84,12.98-19.38,5.54-5.54,11.99-9.86,19.38-12.97,7.38-3.11,15.22-4.67,23.53-4.67s16.14,1.56,23.53,4.67c7.38,3.11,13.84,7.44,19.38,12.97,5.54,5.54,9.86,12,12.98,19.38,3.11,7.39,4.67,15.22,4.67,23.53s-1.56,16.15-4.67,23.53c-3.11,7.38-7.44,13.84-12.98,19.38-5.54,5.54-12,9.86-19.38,12.98-7.39,3.11-15.22,4.67-23.53,4.67,8.3,0,16.14,1.62,23.53,4.84,7.38,3.23,13.78,7.56,19.2,12.98,5.42,5.42,9.74,11.82,12.98,19.2,3.23,7.39,4.84,15.22,4.84,23.53s-1.62,16.15-4.84,23.53c-3.23,7.38-7.56,13.79-12.98,19.2-5.42,5.42-11.82,9.75-19.2,12.97-7.39,3.23-15.22,4.84-23.53,4.84h-121.1c-8.3,0-16.15-1.61-23.53-4.84-7.38-3.23-13.79-7.55-19.2-12.97-5.42-5.42-9.75-11.82-12.97-19.2-3.23-7.38-4.84-15.22-4.84-23.53v-121.1c0-8.3,1.61-16.14,4.84-23.53,3.23-7.38,7.55-13.78,12.97-19.2,5.42-5.42,11.82-9.74,19.2-12.98,7.38-3.23,15.22-4.84,23.53-4.84s16.14,1.62,23.53,4.84c7.38,3.23,13.78,7.56,19.2,12.98,5.42,5.42,9.74,11.82,12.97,19.2,3.23,7.39,4.84,15.22,4.84,23.53v121.1c0-8.3,1.61-16.14,4.84-23.53,3.23-7.38,7.55-13.78,12.98-19.2,5.42-5.42,11.82-9.74,19.2-12.98,7.38-3.23,15.22-4.84,23.53-4.84-8.3,0-16.15-1.56-23.53-4.67-7.38-3.11-13.84-7.44-19.38-12.98s-9.86-11.99-12.98-19.38c-3.11-7.38-4.67-15.22-4.67-23.53Z"/>
  <path class="st0" d="M444.61,125.85c8.3,0,16.14,1.62,23.53,4.84,7.38,3.23,13.78,7.56,19.2,12.98,5.42,5.42,9.74,11.82,12.97,19.2,3.23,7.39,4.84,15.22,4.84,23.53s-1.62,16.15-4.84,23.53c-3.23,7.38-7.56,13.79-12.97,19.2-5.42,5.42-11.82,9.75-19.2,12.97-7.38,3.23-15.22,4.84-23.53,4.84h-181.65V65.3c0-8.3,1.61-16.14,4.84-23.53,3.23-7.38,7.55-13.78,12.97-19.2,5.42-5.42,11.82-9.74,19.2-12.98,7.38-3.23,15.22-4.84,23.53-4.84h121.1c8.3,0,16.14,1.62,23.53,4.84,7.38,3.23,13.78,7.56,19.2,12.98,5.42,5.42,9.74,11.82,12.97,19.2,3.23,7.39,4.84,15.22,4.84,23.53s-1.62,16.15-4.84,23.53c-3.23,7.38-7.56,13.79-12.97,19.2-5.42,5.42-11.82,9.75-19.2,12.98-7.38,3.23-15.22,4.84-23.53,4.84ZM384.06,65.3c0,8.3-1.62,16.15-4.84,23.53-3.23,7.38-7.56,13.79-12.97,19.2-5.42,5.42-11.82,9.75-19.2,12.98-7.38,3.23-15.22,4.84-23.53,4.84,8.3,0,16.14,1.62,23.53,4.84,7.38,3.23,13.78,7.56,19.2,12.98,5.42,5.42,9.74,11.82,12.97,19.2,3.23,7.39,4.84,15.22,4.84,23.53v-121.1Z"/>
</svg>