<?xml version="1.0" encoding="utf-8"?>
<!-- Generator: Adobe Illustrator 27.4.0, SVG Export Plug-In . SVG Version: 6.00 Build 0)  -->
<svg version="1.1" id="Layer_1" xmlns="http://www.w3.org/2000/svg" xmlns:xlink="http://www.w3.org/1999/xlink" x="0px" y="0px"
	 viewBox="0 0 1572.1 342.9" style="enable-background:new 0 0 1572.1 342.9;" xml:space="preserve">
<style type="text/css">
	.st0{display:none;}
	.st1{fill:#D100FF;}
	.st2{fill:#9900EA;}
</style>
<g id="guide" class="st0">
	
		<image style="display:inline;overflow:visible;enable-background:new    ;" width="206" height="42" xlink:href="835E32B48E870E47.png"  transform="matrix(8.1652 0 0 8.1652 -49.9336 0)">
	</image>
</g>
<g id="Layer_1_00000044900531316862645770000008916278092944817308_">
	<g>
		<g>
			<path class="st1" d="M12.5,80.1h28.3v154.2h46.5V260H12.5V80.1z"/>
			<path class="st1" d="M126.8,232.7V260H99.6v-27.2H126.8z"/>
			<path class="st1" d="M231.9,121.4v6.4c0,18.5-5.6,30.1-18.2,36v0.5c15.2,5.9,21.1,19.3,21.1,38.3v14.6
				c0,27.8-14.6,42.7-42.9,42.7h-44.5V80.1H190C219.4,80.1,231.9,93.7,231.9,121.4z M175.7,105.8v47.5h11.1c10.5,0,17-4.6,17-19v-10
				c0-12.8-4.4-18.5-14.4-18.5L175.7,105.8L175.7,105.8z M175.7,179v55.3h16.2c9.5,0,14.6-4.4,14.6-17.7v-15.7
				c0-16.7-5.4-21.9-18.2-21.9L175.7,179L175.7,179z"/>
			<path class="st1" d="M277.7,232.7V260h-27.2v-27.2H277.7z"/>
			<path class="st1" d="M338.1,80.1h44.7c28.3,0,42.1,15.7,42.1,44.5v91c0,28.8-13.9,44.5-42.1,44.5h-44.7V80.1z M366.4,105.8v128.5
				h15.9c9,0,14.4-4.6,14.4-17.5v-93.6c0-12.8-5.4-17.5-14.4-17.5L366.4,105.8L366.4,105.8z"/>
			<path class="st1" d="M471.2,155.9H510v25.7h-38.8v52.7H520V260h-77.1V80.1H520v25.7h-48.8L471.2,155.9L471.2,155.9z"/>
			<path class="st1" d="M564,200.4L528.3,80.1h29.6l21.3,82h0.5l21.3-82h27l-35.7,120.3V260H564L564,200.4L564,200.4z"/>
			<path class="st1" d="M633.1,123.2c0-28.8,15.2-45.2,42.9-45.2s42.9,16.4,42.9,45.2v93.6c0,28.8-15.2,45.2-42.9,45.2
				s-42.9-16.4-42.9-45.2V123.2z M661.4,218.6c0,12.9,5.7,17.7,14.7,17.7s14.7-4.9,14.7-17.7v-97.2c0-12.8-5.7-17.7-14.7-17.7
				s-14.7,4.9-14.7,17.7V218.6z"/>
			<path class="st1" d="M734.6,260v-27.2h27.2v24.4l-12.3,28.5H738l7.5-25.7L734.6,260L734.6,260z"/>
			<path class="st2" d="M822.3,80.1H867c28.3,0,42.2,15.7,42.2,44.5v91c0,28.8-13.9,44.5-42.2,44.5h-44.7V80.1z M850.5,105.8v128.5
				h15.9c9,0,14.4-4.6,14.4-17.5v-93.6c0-12.8-5.4-17.5-14.4-17.5L850.5,105.8L850.5,105.8z"/>
			<path class="st2" d="M955.4,155.9h38.8v25.7h-38.8v52.7h48.8V260h-77.1V80.1h77.1v25.7h-48.8V155.9z"/>
			<path class="st2" d="M1059.7,78c27.5,0,41.6,16.5,41.6,45.2v5.6h-26.7v-7.4c0-12.8-5.1-17.7-14.1-17.7s-14.1,4.9-14.1,17.7
				c0,13.1,5.7,22.9,24.2,39.1c23.6,20.8,31.1,35.7,31.1,56.3c0,28.8-14.4,45.2-42.2,45.2s-42.2-16.4-42.2-45.2v-11.1h26.7v12.9
				c0,12.9,5.7,17.5,14.7,17.5s14.7-4.6,14.7-17.5c0-13.1-5.7-22.9-24.2-39.1c-23.6-20.8-31.1-35.7-31.1-56.3
				C1018.1,94.5,1032.2,78,1059.7,78z"/>
			<path class="st2" d="M1117.8,80.1h28.3V260h-28.3V80.1z"/>
			<path class="st2" d="M1209,159.7h39.6v57.1c0,28.8-14.4,45.2-42.2,45.2s-42.2-16.4-42.2-45.2v-93.6c0-28.8,14.4-45.2,42.2-45.2
				s42.2,16.4,42.2,45.2v17.5h-26.7v-19.3c0-12.8-5.7-17.7-14.7-17.7s-14.7,4.9-14.7,17.7v97.1c0,12.9,5.7,17.5,14.7,17.5
				s14.7-4.6,14.7-17.5v-33.1H1209V159.7z"/>
			<path class="st2" d="M1292.6,129.7h-0.5V260h-25.4V80.1h35.5l28.5,107.7h0.5V80.1h25.2V260h-29L1292.6,129.7z"/>
			<path class="st2" d="M1404.9,155.9h38.8v25.7h-38.8v52.7h48.8V260h-77.1V80.1h77.1v25.7h-48.8V155.9z"/>
			<path class="st2" d="M1530.3,260c-1.5-4.6-2.6-7.4-2.6-22.1v-28.3c0-16.7-5.7-22.9-18.5-22.9h-9.8V260h-28.3V80.1h42.7
				c29.3,0,41.9,13.6,41.9,41.4v14.1c0,18.5-5.9,30.3-18.5,36.2v0.5c14.1,5.9,18.8,19.3,18.8,38v27.8c0,8.7,0.3,15.2,3.1,21.8
				L1530.3,260L1530.3,260z M1499.4,105.8V161h11.1c10.5,0,17-4.6,17-19v-17.7c0-12.8-4.4-18.5-14.4-18.5L1499.4,105.8L1499.4,105.8
				z"/>
		</g>
		<rect x="14.2" y="317.7" class="st1" width="1548.4" height="16"/>
		<rect x="14.2" y="7.3" class="st1" width="1548.4" height="16"/>
	</g>
</g>
</svg>
